<svg width="206" height="144" viewBox="0 0 206 144" fill="none" xmlns="http://www.w3.org/2000/svg">
<g filter="url(#filter0_d_692_28655)">
<path fill-rule="evenodd" clip-rule="evenodd" d="M169.229 70.6806C169.229 88.5909 161.949 104.801 150.187 116.513C170.243 109.051 182.781 96.7804 176.385 70.1612C185.141 63.2657 182.365 53.3073 173.982 44.0775L177.096 36.7533C180.171 40.8802 182.664 45.5153 184.435 50.5952C194.306 78.9219 177.961 110.392 147.909 121.054C147.908 121.075 147.907 121.096 147.905 121.116C165.088 124.171 179.053 120.398 185.832 97.6653C194.841 96.2564 197.103 87.6088 195.151 77.1033L200.408 72.9545C200.811 77.3629 200.595 81.9027 199.688 86.4655C194.781 111.137 171.448 127.453 146.844 123.949C146.437 124.482 145.92 124.945 145.302 125.3C143.47 126.355 141.265 126.173 139.652 125.015C129.542 131.561 117.489 135.361 104.548 135.361C68.8259 135.361 39.8674 106.403 39.8674 70.6806C39.8674 54.3303 45.9341 39.397 55.9392 28.0088C36.1147 34.9542 23.625 46.9082 29.2163 73.365C20.2733 80.0161 22.7734 90.0467 30.8976 99.5036L27.5834 106.738C24.624 102.528 22.2593 97.8258 20.6299 92.6992C11.5431 64.1106 28.75 33.1026 59.0855 23.2731L59.089 23.2317L59.0912 23.2072C41.9983 19.6801 27.9345 23.0658 20.5314 45.6039C11.4869 46.7639 8.98729 55.3459 10.6493 65.9012L5.27937 69.904C4.99769 65.486 5.33855 60.9536 6.37146 56.4173C11.9565 31.8896 35.7309 16.2232 60.2294 20.405C60.6512 19.8831 61.1814 19.4344 61.809 19.0958C63.1426 18.3762 64.6502 18.297 65.9788 18.7525C76.7478 10.7409 90.0942 6 104.548 6C140.27 6 169.229 34.9585 169.229 70.6806ZM137.522 121.424C128.036 127.601 116.711 131.19 104.548 131.19C71.1308 131.19 44.0407 104.1 44.0407 70.6822C44.0407 54.0876 50.721 39.0533 61.5391 28.1218C63.0744 29.0706 65.0604 29.1955 66.7628 28.277C69.1536 26.987 70.1314 24.0997 69.088 21.6488C79.0523 14.4302 91.3033 10.1745 104.548 10.1745C137.966 10.1745 165.056 37.2647 165.056 70.6822C165.056 88.6973 157.183 104.874 144.69 115.958C143.247 115.364 141.554 115.42 140.097 116.259C138.222 117.338 137.271 119.405 137.522 121.424Z" fill="url(#paint0_linear_692_28655)"/>
</g>
<defs>
<filter id="filter0_d_692_28655" x="1.18457" y="2" width="203.418" height="137.361" filterUnits="userSpaceOnUse" color-interpolation-filters="sRGB">
<feFlood flood-opacity="0" result="BackgroundImageFix"/>
<feColorMatrix in="SourceAlpha" type="matrix" values="0 0 0 0 0 0 0 0 0 0 0 0 0 0 0 0 0 0 127 0" result="hardAlpha"/>
<feOffset/>
<feGaussianBlur stdDeviation="2"/>
<feComposite in2="hardAlpha" operator="out"/>
<feColorMatrix type="matrix" values="0 0 0 0 0.145098 0 0 0 0 0.870588 0 0 0 0 0.129412 0 0 0 1 0"/>
<feBlend mode="normal" in2="BackgroundImageFix" result="effect1_dropShadow_692_28655"/>
<feBlend mode="normal" in="SourceGraphic" in2="effect1_dropShadow_692_28655" result="shape"/>
</filter>
<linearGradient id="paint0_linear_692_28655" x1="190.47" y1="141.659" x2="-8.24737" y2="89.0278" gradientUnits="userSpaceOnUse">
<stop stop-color="#25DE21"/>
<stop offset="1" stop-color="#24B1DE"/>
</linearGradient>
</defs>
</svg>
