<svg width="100" height="100" viewBox="0 0 100 100" fill="none" xmlns="http://www.w3.org/2000/svg">
<mask id="mask0_123_6652" style="mask-type:alpha" maskUnits="userSpaceOnUse" x="0" y="0" width="100" height="100">
<rect width="100" height="100" fill="white"/>
</mask>
<g mask="url(#mask0_123_6652)">
<path d="M16.6668 20.8334H50.0002V16.6667H16.6668V20.8334ZM16.6668 91.6667C14.3752 91.6667 12.4134 90.8507 10.7814 89.2188C9.14947 87.5869 8.3335 85.625 8.3335 83.3334V16.6667C8.3335 14.375 9.14947 12.4132 10.7814 10.7813C12.4134 9.14935 14.3752 8.33337 16.6668 8.33337H50.0002C52.2918 8.33337 54.2536 9.14935 55.8856 10.7813C57.5175 12.4132 58.3335 14.375 58.3335 16.6667V32.7084C56.7363 33.5417 55.2432 34.4966 53.8543 35.573C52.4654 36.6493 51.1807 37.8473 50.0002 39.1667V29.1667H16.6668V70.8334H43.4377C43.9932 72.3612 44.6356 73.8195 45.3647 75.2084C46.0939 76.5973 46.9446 77.9167 47.9168 79.1667H16.6668V83.3334H50.0002V81.6667C51.0418 82.8473 52.1529 83.9237 53.3335 84.8959C54.5141 85.8681 55.7988 86.7362 57.1877 87.5C56.4238 88.75 55.4342 89.757 54.2189 90.5209C53.0036 91.2848 51.5974 91.6667 50.0002 91.6667H16.6668ZM72.9168 75C76.9446 75 80.3821 73.5764 83.2293 70.7292C86.0766 67.882 87.5002 64.4445 87.5002 60.4167C87.5002 56.3889 86.0766 52.9514 83.2293 50.1042C80.3821 47.257 76.9446 45.8334 72.9168 45.8334C68.889 45.8334 65.4516 47.257 62.6043 50.1042C59.7571 52.9514 58.3335 56.3889 58.3335 60.4167C58.3335 64.4445 59.7571 67.882 62.6043 70.7292C65.4516 73.5764 68.889 75 72.9168 75ZM62.5002 91.6667V80.8334C58.7502 78.9584 55.7293 76.2153 53.4377 72.6042C51.146 68.9931 50.0002 64.9306 50.0002 60.4167C50.0002 55.9028 51.146 51.8403 53.4377 48.2292C55.7293 44.6181 58.7502 41.875 62.5002 40V29.1667H83.3335V40C87.0835 41.875 90.1043 44.6181 92.396 48.2292C94.6877 51.8403 95.8335 55.9028 95.8335 60.4167C95.8335 64.9306 94.6877 68.9931 92.396 72.6042C90.1043 76.2153 87.0835 78.9584 83.3335 80.8334V91.6667H62.5002Z" fill="white"/>
</g>
</svg>
