<svg width="160" height="160" viewBox="0 0 160 160" fill="none" xmlns="http://www.w3.org/2000/svg">
<mask id="mask0_124_6658" style="mask-type:alpha" maskUnits="userSpaceOnUse" x="0" y="0" width="160" height="160">
<rect width="160" height="160" fill="white"/>
</mask>
<g mask="url(#mask0_124_6658)">
<path d="M63.2347 131.466C59.6569 131.466 56.4486 130.533 53.6097 128.666C50.7708 126.799 48.5736 124.233 47.018 120.966C45.7736 122.599 44.1986 123.863 42.293 124.758C40.3875 125.652 38.4236 126.099 36.4014 126.099C32.4347 126.099 29.1097 124.738 26.4264 122.016C23.743 119.294 22.4014 115.988 22.4014 112.099C22.4014 108.755 23.4903 105.741 25.668 103.058C27.8458 100.374 30.6069 98.8382 33.9514 98.4493C32.8625 96.8938 32.0264 95.241 31.443 93.491C30.8597 91.741 30.568 89.8938 30.568 87.9493C30.568 84.8382 31.3653 81.9215 32.9597 79.1993C34.5541 76.4771 36.7903 74.2604 39.668 72.5493C40.0569 73.9493 40.5819 75.4465 41.243 77.041C41.9041 78.6354 42.6625 80.016 43.518 81.1827C42.4291 82.0382 41.5736 83.0688 40.9514 84.2743C40.3291 85.4799 40.018 86.7438 40.018 88.066C40.018 92.4215 41.8069 95.1049 45.3847 96.116C48.9625 97.1271 52.3458 97.9438 55.5347 98.566L57.7514 102.299C56.8958 104.788 56.1569 106.908 55.5347 108.658C54.9125 110.408 54.6014 111.983 54.6014 113.383C54.6014 115.716 55.4375 117.758 57.1097 119.508C58.7819 121.258 60.8236 122.133 63.2347 122.133C66.1903 122.133 68.6403 120.81 70.5847 118.166C72.5291 115.522 74.1236 112.41 75.368 108.833C76.6125 105.255 77.5653 101.638 78.2264 97.9827C78.8875 94.3271 79.4125 91.5271 79.8014 89.5827L88.9014 92.0327C88.2014 95.5327 87.3458 99.5382 86.3347 104.049C85.3236 108.56 83.9041 112.858 82.0764 116.941C80.2486 121.024 77.8375 124.466 74.843 127.266C71.8486 130.066 67.9791 131.466 63.2347 131.466ZM36.4014 116.766C37.7236 116.766 38.8319 116.319 39.7264 115.424C40.6208 114.53 41.068 113.422 41.068 112.099C41.068 110.777 40.6208 109.669 39.7264 108.774C38.8319 107.88 37.7236 107.433 36.4014 107.433C35.0791 107.433 33.9708 107.88 33.0764 108.774C32.1819 109.669 31.7347 110.777 31.7347 112.099C31.7347 113.422 32.1819 114.53 33.0764 115.424C33.9708 116.319 35.0791 116.766 36.4014 116.766ZM69.5347 98.3327C65.9569 95.1438 62.7097 92.1688 59.793 89.4077C56.8764 86.6465 54.368 83.9632 52.268 81.3577C50.168 78.7521 48.5541 76.1465 47.4264 73.541C46.2986 70.9354 45.7347 68.2327 45.7347 65.4327C45.7347 60.3771 47.4653 56.1188 50.9264 52.6577C54.3875 49.1965 58.6458 47.466 63.7014 47.466C64.0125 47.466 64.2847 47.4854 64.518 47.5243C64.7514 47.5632 65.0236 47.5827 65.3347 47.5827C65.0236 46.8049 64.7903 46.0271 64.6347 45.2493C64.4791 44.4715 64.4014 43.6549 64.4014 42.7993C64.4014 38.9104 65.7625 35.6049 68.4847 32.8827C71.2069 30.1604 74.5125 28.7993 78.4014 28.7993C82.2903 28.7993 85.5958 30.1604 88.318 32.8827C91.0403 35.6049 92.4014 38.9104 92.4014 42.7993C92.4014 43.6549 92.3236 44.4521 92.168 45.191C92.0125 45.9299 91.7791 46.6882 91.468 47.466H93.1014C97.768 47.466 101.735 48.9632 105.001 51.9577C108.268 54.9521 110.212 58.666 110.835 63.0993C109.435 62.866 107.86 62.7493 106.11 62.7493C104.36 62.7493 102.746 62.8271 101.268 62.9827C100.724 61.1938 99.7319 59.716 98.293 58.5493C96.8541 57.3827 95.1236 56.7993 93.1014 56.7993C90.3791 56.7993 88.2597 57.5965 86.743 59.191C85.2264 60.7854 83.1458 63.0993 80.5014 66.1327H76.1847C73.4625 62.9438 71.343 60.591 69.8264 59.0743C68.3097 57.5577 66.268 56.7993 63.7014 56.7993C61.2125 56.7993 59.1514 57.616 57.518 59.2493C55.8847 60.8827 55.068 62.9438 55.068 65.4327C55.068 67.2215 55.5736 69.0688 56.5847 70.9743C57.5958 72.8799 59.0153 74.9021 60.843 77.041C62.6708 79.1799 64.8875 81.4549 67.493 83.866C70.0986 86.2771 72.9958 88.8827 76.1847 91.6827L69.5347 98.3327ZM78.4014 47.466C79.7236 47.466 80.8319 47.0188 81.7264 46.1243C82.6208 45.2299 83.068 44.1215 83.068 42.7993C83.068 41.4771 82.6208 40.3688 81.7264 39.4743C80.8319 38.5799 79.7236 38.1327 78.4014 38.1327C77.0791 38.1327 75.9708 38.5799 75.0764 39.4743C74.1819 40.3688 73.7347 41.4771 73.7347 42.7993C73.7347 44.1215 74.1819 45.2299 75.0764 46.1243C75.9708 47.0188 77.0791 47.466 78.4014 47.466ZM93.4514 131.466C91.7403 131.466 90.0486 131.233 88.3764 130.766C86.7041 130.299 85.0903 129.56 83.5347 128.549C84.3903 127.46 85.2458 126.177 86.1014 124.699C86.9569 123.222 87.7347 121.86 88.4347 120.616C89.2903 121.16 90.1458 121.549 91.0014 121.783C91.8569 122.016 92.7125 122.133 93.568 122.133C96.0569 122.133 98.1375 121.258 99.8097 119.508C101.482 117.758 102.318 115.677 102.318 113.266C102.318 111.788 102.007 110.194 101.385 108.483C100.762 106.772 100.024 104.672 99.168 102.183L101.385 98.4493C104.651 97.8271 108.054 97.0104 111.593 95.9993C115.132 94.9882 116.901 92.3049 116.901 87.9493C116.901 84.8382 115.754 82.5827 113.46 81.1827C111.165 79.7827 108.657 79.0827 105.935 79.0827C102.668 79.0827 98.8569 79.7049 94.5014 80.9493C90.1458 82.1938 85.0514 83.7882 79.218 85.7327L76.768 76.6327C82.8347 74.6882 88.2403 73.0549 92.9847 71.7327C97.7291 70.4104 102.085 69.7493 106.051 69.7493C111.418 69.7493 116.124 71.3438 120.168 74.5327C124.212 77.7215 126.235 82.1938 126.235 87.9493C126.235 89.8938 125.943 91.741 125.36 93.491C124.776 95.241 123.94 96.8938 122.851 98.4493C126.196 98.8382 128.957 100.374 131.135 103.058C133.312 105.741 134.401 108.755 134.401 112.099C134.401 115.988 133.06 119.294 130.376 122.016C127.693 124.738 124.368 126.099 120.401 126.099C118.379 126.099 116.415 125.652 114.51 124.758C112.604 123.863 111.029 122.599 109.785 120.966C108.229 124.233 106.032 126.799 103.193 128.666C100.354 130.533 97.1069 131.466 93.4514 131.466ZM120.518 116.766C121.84 116.766 122.929 116.319 123.785 115.424C124.64 114.53 125.068 113.422 125.068 112.099C125.068 110.777 124.621 109.649 123.726 108.716C122.832 107.783 121.724 107.316 120.401 107.316C119.079 107.316 117.971 107.763 117.076 108.658C116.182 109.552 115.735 110.66 115.735 111.983C115.735 113.305 116.201 114.433 117.135 115.366C118.068 116.299 119.196 116.766 120.518 116.766Z" fill="white"/>
</g>
</svg>
