<svg width="100" height="100" viewBox="0 0 100 100" fill="none" xmlns="http://www.w3.org/2000/svg">
<mask id="mask0_124_6655" style="mask-type:alpha" maskUnits="userSpaceOnUse" x="0" y="0" width="100" height="100">
<rect width="100" height="100" fill="white"/>
</mask>
<g mask="url(#mask0_124_6655)">
<path d="M49.9998 88.8542C55.2082 83.9236 59.288 79.184 62.2394 74.6354C65.1908 70.0868 66.6665 66.25 66.6665 63.125C66.6665 58.3333 65.0519 54.2535 61.8228 50.8854C58.5936 47.5174 54.6526 45.8333 49.9998 45.8333C45.3471 45.8333 41.4061 47.5174 38.1769 50.8854C34.9478 54.2535 33.3332 58.3333 33.3332 63.125C33.3332 66.25 34.8089 70.0868 37.7603 74.6354C40.7116 79.184 44.7915 83.9236 49.9998 88.8542ZM49.9998 100C41.5971 92.8472 35.3297 86.2153 31.1978 80.1042C27.0658 73.9931 24.9998 68.3333 24.9998 63.125C24.9998 56.0417 27.413 50 32.2394 45C37.0658 40 42.9859 37.5 49.9998 37.5C57.0137 37.5 62.9339 40 67.7603 45C72.5866 50 74.9998 56.0417 74.9998 63.125C74.9998 68.3333 72.9339 73.9931 68.8019 80.1042C64.67 86.2153 58.4026 92.8472 49.9998 100ZM49.9998 68.75C51.7359 68.75 53.2116 68.1424 54.4269 66.9271C55.6422 65.7118 56.2498 64.2361 56.2498 62.5C56.2498 60.7639 55.6422 59.2882 54.4269 58.0729C53.2116 56.8576 51.7359 56.25 49.9998 56.25C48.2637 56.25 46.788 56.8576 45.5728 58.0729C44.3575 59.2882 43.7498 60.7639 43.7498 62.5C43.7498 64.2361 44.3575 65.7118 45.5728 66.9271C46.788 68.1424 48.2637 68.75 49.9998 68.75ZM35.2082 31.0417L29.3748 25.2083C32.1526 22.4306 35.3123 20.3125 38.854 18.8542C42.3957 17.3958 46.1109 16.6667 49.9998 16.6667C53.8887 16.6667 57.604 17.3958 61.1457 18.8542C64.6873 20.3125 67.8471 22.4306 70.6248 25.2083L64.7915 31.0417C62.7776 29.0278 60.5033 27.5174 57.9686 26.5104C55.4339 25.5035 52.7776 25 49.9998 25C47.2221 25 44.5658 25.5035 42.0311 26.5104C39.4964 27.5174 37.2221 29.0278 35.2082 31.0417ZM23.5415 19.2708L17.604 13.4375C21.979 9.0625 26.9443 5.72917 32.4998 3.4375C38.0554 1.14583 43.8887 0 49.9998 0C56.1109 0 61.9443 1.14583 67.4998 3.4375C73.0554 5.72917 78.0207 9.0625 82.3957 13.4375L76.5623 19.375C73.0207 15.8333 68.9582 13.1076 64.3748 11.1979C59.7915 9.28819 54.9998 8.33333 49.9998 8.33333C44.9998 8.33333 40.2255 9.27083 35.6769 11.1458C31.1283 13.0208 27.0832 15.7292 23.5415 19.2708Z" fill="white"/>
</g>
</svg>
