<svg width="282" height="106" viewBox="0 0 282 106" fill="none" xmlns="http://www.w3.org/2000/svg">
<path fill-rule="evenodd" clip-rule="evenodd" d="M70 14H5V19.4283H34.2611V23.7711H5V29.1998H34.2611V33.5426H5V38.9716H34.2608V43.3144H5V48.743H34.2608V53.0858H5V68.09H70V62.8575H37.5V58.5146H70V53.0856H37.5V48.7428H70V14ZM5.00002 68.0901L37.5 90L48.7731 82.4002H37.5V78.0574H55.215L63.2675 72.6288H37.5V68.286H69.7094L70 68.0901H5.00002Z" fill="black"/>
<path d="M236.518 43.2142C237.347 44.7137 238.274 46.0159 239.3 47.1208C240.365 48.2258 241.51 49.0742 242.733 49.6661C243.996 50.258 245.318 50.554 246.699 50.554C248.159 50.554 249.362 50.1988 250.31 49.4885C251.257 48.7388 251.73 47.7325 251.73 46.4697C251.73 45.4043 251.454 44.5559 250.901 43.9245C250.349 43.2536 249.461 42.6223 248.238 42.0303C247.015 41.4384 245.397 40.7676 243.384 40.0178C242.398 39.6627 241.253 39.1694 239.951 38.538C238.688 37.9067 237.485 37.0977 236.34 36.1112C235.196 35.0852 234.249 33.8619 233.499 32.4413C232.749 30.9812 232.374 29.2252 232.374 27.1732C232.374 24.7266 233.006 22.6154 234.269 20.8397C235.571 19.0639 237.307 17.7223 239.477 16.8146C241.687 15.8676 244.134 15.394 246.817 15.394C249.579 15.394 251.967 15.8478 253.979 16.7555C256.031 17.6631 257.728 18.8074 259.07 20.1886C260.412 21.5697 261.438 22.9706 262.148 24.3912L254.512 28.653C253.92 27.6665 253.23 26.8181 252.44 26.1078C251.691 25.358 250.842 24.7858 249.895 24.3912C248.988 23.9571 248.001 23.7401 246.936 23.7401C245.515 23.7401 244.43 24.0558 243.68 24.6872C242.93 25.2791 242.555 26.0288 242.555 26.9364C242.555 27.8835 242.911 28.7122 243.621 29.4225C244.371 30.1328 245.416 30.7839 246.758 31.3758C248.139 31.9677 249.797 32.5991 251.73 33.27C253.19 33.8224 254.552 34.4735 255.814 35.2233C257.077 35.9336 258.182 36.8017 259.129 37.8277C260.116 38.8537 260.885 40.0376 261.438 41.3792C261.99 42.7209 262.266 44.2599 262.266 45.9962C262.266 48.0876 261.832 49.962 260.964 51.6194C260.135 53.2373 258.991 54.5987 257.531 55.7036C256.11 56.8086 254.473 57.6372 252.618 58.1897C250.803 58.7816 248.928 59.0776 246.995 59.0776C244.311 59.0776 241.806 58.604 239.477 57.657C237.189 56.6704 235.196 55.3485 233.499 53.6911C231.802 52.0338 230.48 50.2185 229.533 48.2455L236.518 43.2142Z" fill="black"/>
<path d="M207.081 16.3413H217.262V57.7756H207.081V16.3413Z" fill="black"/>
<path d="M173.196 39.0118H183.555L196.518 57.7756H184.798L173.196 39.0118ZM162.837 16.3413H172.841V57.7756H162.837V16.3413ZM169.112 24.8057V16.3413H177.931C181.483 16.3413 184.442 16.9135 186.81 18.0579C189.178 19.2022 190.973 20.8004 192.197 22.8524C193.42 24.8649 194.031 27.2129 194.031 29.8962C194.031 32.5401 193.42 34.8881 192.197 36.94C190.973 38.9526 189.178 40.531 186.81 41.6754C184.442 42.8198 181.483 43.392 177.931 43.392H169.112V35.6378H177.221C178.563 35.6378 179.707 35.4405 180.654 35.0459C181.641 34.6118 182.39 34.0002 182.903 33.211C183.416 32.3823 183.673 31.3958 183.673 30.2514C183.673 29.107 183.416 28.1402 182.903 27.351C182.39 26.5223 181.641 25.8909 180.654 25.4568C179.707 25.0228 178.563 24.8057 177.221 24.8057H169.112Z" fill="black"/>
<path d="M116.532 37.0582C116.532 39.5048 117.006 41.6752 117.953 43.5693C118.939 45.424 120.301 46.8841 122.037 47.9495C123.813 49.015 125.885 49.5477 128.252 49.5477C130.581 49.5477 132.613 49.015 134.349 47.9495C136.125 46.8841 137.486 45.424 138.433 43.5693C139.42 41.6752 139.913 39.5048 139.913 37.0582C139.913 34.6116 139.44 32.461 138.492 30.6063C137.545 28.7122 136.204 27.2324 134.467 26.1669C132.731 25.1015 130.659 24.5688 128.252 24.5688C125.885 24.5688 123.813 25.1015 122.037 26.1669C120.301 27.2324 118.939 28.7122 117.953 30.6063C117.006 32.461 116.532 34.6116 116.532 37.0582ZM105.937 37.0582C105.937 33.8619 106.489 30.9418 107.594 28.2979C108.739 25.654 110.317 23.3652 112.33 21.4316C114.342 19.498 116.71 18.0182 119.433 16.9922C122.156 15.9268 125.095 15.394 128.252 15.394C131.449 15.394 134.389 15.9268 137.072 16.9922C139.795 18.0182 142.162 19.498 144.175 21.4316C146.187 23.3652 147.746 25.654 148.851 28.2979C149.956 30.9418 150.508 33.8619 150.508 37.0582C150.508 40.2546 149.956 43.1945 148.851 45.8778C147.786 48.5612 146.247 50.8894 144.234 52.8624C142.261 54.8355 139.913 56.3745 137.19 57.4794C134.467 58.5449 131.488 59.0776 128.252 59.0776C124.977 59.0776 121.978 58.5449 119.255 57.4794C116.532 56.3745 114.165 54.8355 112.152 52.8624C110.179 50.8894 108.64 48.5612 107.535 45.8778C106.47 43.1945 105.937 40.2546 105.937 37.0582Z" fill="black"/>
<path d="M248.822 94.4152L254.83 85.8916H256.694V96.2502H254.09V93.6457L254.371 93.4829V89.5171L252.137 92.6099H255.954L256.206 92.2843H258.322V94.4152H248.822Z" fill="black"/>
<path d="M238.861 91.0711C238.861 91.5545 238.906 91.9984 238.994 92.4029C239.083 92.7975 239.211 93.1378 239.379 93.4239C239.547 93.7002 239.744 93.9172 239.971 94.075C240.208 94.223 240.469 94.297 240.755 94.297C241.042 94.297 241.298 94.223 241.525 94.075C241.762 93.9172 241.964 93.7002 242.132 93.4239C242.299 93.1378 242.428 92.7975 242.516 92.4029C242.605 91.9984 242.65 91.5545 242.65 91.0711C242.65 90.5877 242.605 90.1487 242.516 89.754C242.428 89.3496 242.299 89.0092 242.132 88.733C241.964 88.4469 241.762 88.2299 241.525 88.0819C241.298 87.924 241.042 87.8451 240.755 87.8451C240.469 87.8451 240.208 87.924 239.971 88.0819C239.744 88.2299 239.547 88.4469 239.379 88.733C239.211 89.0092 239.083 89.3496 238.994 89.754C238.906 90.1487 238.861 90.5877 238.861 91.0711ZM236.449 91.0711C236.449 89.9464 236.627 88.9845 236.982 88.1855C237.347 87.3864 237.855 86.7747 238.506 86.3505C239.157 85.9164 239.907 85.6994 240.755 85.6994C241.643 85.6994 242.408 85.9164 243.049 86.3505C243.69 86.7747 244.184 87.3864 244.529 88.1855C244.884 88.9845 245.062 89.9464 245.062 91.0711C245.062 92.1957 244.884 93.1576 244.529 93.9567C244.184 94.7557 243.69 95.3723 243.049 95.8064C242.408 96.2306 241.643 96.4427 240.755 96.4427C239.907 96.4427 239.157 96.2306 238.506 95.8064C237.855 95.3723 237.347 94.7557 236.982 93.9567C236.627 93.1576 236.449 92.1957 236.449 91.0711Z" fill="black"/>
<path d="M229.688 89.5317C229.688 89.1765 229.609 88.8707 229.451 88.6142C229.303 88.3478 229.096 88.1456 228.829 88.0075C228.573 87.8595 228.282 87.7855 227.956 87.7855C227.621 87.7855 227.32 87.8595 227.054 88.0075C226.797 88.1456 226.59 88.3478 226.432 88.6142C226.284 88.8707 226.21 89.1765 226.21 89.5317C226.21 89.8769 226.284 90.1828 226.432 90.4491C226.59 90.7155 226.797 90.9227 227.054 91.0707C227.32 91.2186 227.621 91.2926 227.956 91.2926C228.282 91.2926 228.573 91.2186 228.829 91.0707C229.096 90.9227 229.303 90.7155 229.451 90.4491C229.609 90.1828 229.688 89.8769 229.688 89.5317ZM227.971 96.2055H224.804L228.163 92.4617L228.666 92.2397C228.39 92.5061 228.124 92.6836 227.867 92.7724C227.621 92.8513 227.31 92.8908 226.935 92.8908C226.55 92.8908 226.166 92.8168 225.781 92.6688C225.406 92.511 225.066 92.289 224.76 92.0029C224.454 91.707 224.207 91.3518 224.02 90.9375C223.832 90.5231 223.739 90.0545 223.739 89.5317C223.739 88.6734 223.926 87.9581 224.301 87.386C224.686 86.8138 225.194 86.3846 225.825 86.0985C226.467 85.8026 227.177 85.6546 227.956 85.6546C228.726 85.6546 229.426 85.8026 230.057 86.0985C230.699 86.3846 231.207 86.8138 231.582 87.386C231.966 87.9581 232.159 88.6734 232.159 89.5317C232.159 90.0841 232.04 90.5971 231.804 91.0707C231.577 91.5442 231.296 91.9881 230.96 92.4025L227.971 96.2055Z" fill="black"/>
<path d="M213.516 88.881V86.7057L218.488 85.6994V96.2503H216.076V88.2446L213.516 88.881Z" fill="black"/>
<path d="M198.648 85.8915H201.06V96.768L193.898 90.4196V96.25H191.5V85.3735L198.648 91.7219V85.8915Z" fill="black"/>
<path d="M183.801 85.8916H186.347V96.2502H183.801V85.8916Z" fill="black"/>
<path d="M173.583 96.2502V94.1932H178.806V96.2502H173.583ZM173.583 87.9485V85.8916H178.806V87.9485H173.583ZM173.583 91.8108V89.7983H178.51V91.8108H173.583ZM171.925 85.8916H174.323V96.2502H171.925V85.8916Z" fill="black"/>
<path d="M159.635 88.1261V85.8916H167.833V88.1261H164.977V96.2502H162.476V88.1261H159.635Z" fill="black"/>
<path d="M149.602 92.6096C149.809 92.9845 150.041 93.3101 150.298 93.5863C150.564 93.8625 150.85 94.0746 151.156 94.2226C151.472 94.3706 151.802 94.4446 152.147 94.4446C152.512 94.4446 152.813 94.3558 153.05 94.1782C153.287 93.9908 153.405 93.7392 153.405 93.4235C153.405 93.1572 153.336 92.9451 153.198 92.7872C153.06 92.6195 152.838 92.4617 152.532 92.3137C152.226 92.1657 151.822 91.998 151.319 91.8105C151.072 91.7218 150.786 91.5984 150.46 91.4406C150.145 91.2828 149.844 91.0805 149.558 90.8339C149.272 90.5774 149.035 90.2716 148.847 89.9164C148.66 89.5514 148.566 89.1124 148.566 88.5994C148.566 87.9877 148.724 87.46 149.04 87.016C149.365 86.5721 149.799 86.2367 150.342 86.0098C150.894 85.773 151.506 85.6546 152.177 85.6546C152.868 85.6546 153.464 85.7681 153.968 85.995C154.481 86.2219 154.905 86.508 155.24 86.8532C155.576 87.1985 155.832 87.5487 156.01 87.9039L154.101 88.9693C153.953 88.7227 153.78 88.5106 153.583 88.333C153.395 88.1456 153.183 88.0025 152.946 87.9039C152.72 87.7954 152.473 87.7411 152.207 87.7411C151.851 87.7411 151.58 87.82 151.393 87.9779C151.205 88.1259 151.112 88.3133 151.112 88.5402C151.112 88.777 151.2 88.9841 151.378 89.1617C151.565 89.3393 151.827 89.5021 152.162 89.65C152.507 89.798 152.922 89.9559 153.405 90.1236C153.77 90.2617 154.111 90.4245 154.426 90.6119C154.742 90.7895 155.018 91.0065 155.255 91.263C155.502 91.5195 155.694 91.8155 155.832 92.1509C155.97 92.4863 156.039 92.8711 156.039 93.3051C156.039 93.828 155.931 94.2966 155.714 94.7109C155.506 95.1154 155.22 95.4558 154.855 95.732C154.5 96.0082 154.091 96.2154 153.627 96.3535C153.173 96.5015 152.705 96.5755 152.221 96.5755C151.551 96.5755 150.924 96.4571 150.342 96.2203C149.77 95.9737 149.272 95.6432 148.847 95.2289C148.423 94.8145 148.093 94.3607 147.856 93.8675L149.602 92.6096Z" fill="black"/>
<path d="M137.685 85.8916H140.185V94.1045H144.344V96.2502H137.685V85.8916Z" fill="black"/>
<path d="M124.629 91.0707C124.629 91.6823 124.747 92.2249 124.984 92.6984C125.231 93.1621 125.571 93.5271 126.005 93.7935C126.449 94.0598 126.967 94.193 127.559 94.193C128.141 94.193 128.649 94.0598 129.083 93.7935C129.527 93.5271 129.867 93.1621 130.104 92.6984C130.351 92.2249 130.474 91.6823 130.474 91.0707C130.474 90.459 130.356 89.9213 130.119 89.4577C129.882 88.9841 129.547 88.6142 129.113 88.3478C128.679 88.0815 128.161 87.9483 127.559 87.9483C126.967 87.9483 126.449 88.0815 126.005 88.3478C125.571 88.6142 125.231 88.9841 124.984 89.4577C124.747 89.9213 124.629 90.459 124.629 91.0707ZM121.98 91.0707C121.98 90.2716 122.118 89.5415 122.394 88.8806C122.68 88.2196 123.075 87.6474 123.578 87.164C124.081 86.6806 124.673 86.3106 125.354 86.0541C126.035 85.7878 126.77 85.6546 127.559 85.6546C128.358 85.6546 129.093 85.7878 129.764 86.0541C130.444 86.3106 131.036 86.6806 131.539 87.164C132.043 87.6474 132.432 88.2196 132.708 88.8806C132.985 89.5415 133.123 90.2716 133.123 91.0707C133.123 91.8697 132.985 92.6047 132.708 93.2755C132.442 93.9464 132.057 94.5284 131.554 95.0217C131.061 95.515 130.474 95.8997 129.793 96.1759C129.113 96.4423 128.368 96.5755 127.559 96.5755C126.74 96.5755 125.99 96.4423 125.31 96.1759C124.629 95.8997 124.037 95.515 123.534 95.0217C123.041 94.5284 122.656 93.9464 122.38 93.2755C122.113 92.6047 121.98 91.8697 121.98 91.0707Z" fill="black"/>
<path d="M108.675 91.9144V89.6651H116.517V91.9144H108.675ZM114.934 85.8916H117.435V96.2502H114.934V85.8916ZM107.979 85.8916H110.48V96.2502H107.979V85.8916Z" fill="black"/>
<path d="M102 77H265V81H102V77Z" fill="black"/>
</svg>
