<svg width="187" height="124" viewBox="0 0 187 124" fill="none" xmlns="http://www.w3.org/2000/svg">
<rect width="187" height="58" fill="#FF0000"/>
<path d="M31.24 42.08H25.8L18.76 23.64V42.08H12.36V10.44H19.04L28.52 35.24L38 10.44H44.68V42.08H38.28V23.64L31.24 42.08ZM74.8713 42.08H68.1512L66.4313 36H55.7913L54.0713 42.08H47.3513L57.4713 10.44H64.7513L74.8713 42.08ZM61.1113 17.2L57.2713 30.64H64.9113L61.1113 17.2ZM93.9544 39.24L93.7144 35.24C93.5144 32.04 92.2344 30.84 88.8744 30.84H84.1544V42.08H77.5944V10.44H90.5544C97.2744 10.44 100.794 14.08 100.794 20.12C100.794 24.32 98.8744 27.08 95.1544 28.08C98.5944 28.56 99.9944 30.64 100.234 34.8L100.514 39.2C100.594 40.4 100.794 41.36 101.114 42.08H94.4744C94.1944 41.4 94.0344 40.32 93.9544 39.24ZM84.1544 25.36H89.3944C92.3944 25.36 94.1544 24.12 94.1544 20.64C94.1544 17.2 92.3944 15.92 89.3944 15.92H84.1544V25.36ZM102.156 10.44H108.876L115.916 35.04L122.956 10.44H129.676L119.556 42.08H112.276L102.156 10.44ZM132.399 42.08V10.44H152.039V15.92H138.959V23.12H150.399V28.6H138.959V36.6H152.239V42.08H132.399ZM156.11 42.08V10.44H162.67V36.6H175.95V42.08H156.11Z" fill="white"/>
<path d="M44.52 105C44.52 110.6 40.4 114.64 33.12 114.64C25.92 114.64 21.72 110.68 21.72 105.12V104.52H28.28V105.2C28.28 107.64 30.08 109.32 33.12 109.32C36.12 109.32 37.92 107.64 37.92 105.2C37.92 103.04 36.56 101.56 33.6 100.96L30.2 100.28C24.88 99.24 21.64 96.36 21.64 91.04C21.64 86 25.44 81.88 32.48 81.88C39.52 81.88 43.32 86.04 43.32 90.88V91.36H36.76V90.88C36.76 88.72 35.24 87.24 32.48 87.24C29.68 87.24 28.2 88.72 28.2 90.88C28.2 93.08 29.56 94.2 32.6 94.84L36 95.52C41.52 96.64 44.52 99.76 44.52 105ZM45.52 87.92V82.44H68.88V87.92H60.48V114.08H53.88V87.92H45.52ZM83.655 114.64C75.455 114.64 71.535 109.8 71.535 102.36V82.44H78.135V102.08C78.135 106.8 79.855 109.12 83.655 109.12C87.415 109.12 89.175 106.8 89.175 102.08V82.44H95.735V102.36C95.735 109.8 91.815 114.64 83.655 114.64ZM117.891 98.24C117.891 90.12 116.051 87.84 111.611 87.84H106.811V108.72H111.611C116.051 108.72 117.891 106.4 117.891 98.24ZM112.011 114.08H100.211V82.44H112.011C122.411 82.44 124.451 89.8 124.451 98.24C124.451 106.76 122.411 114.08 112.011 114.08ZM135.092 82.44V114.08H128.532V82.44H135.092ZM164.582 98.24C164.582 102.96 163.942 107.24 161.582 110.36C159.542 113.08 156.462 114.64 151.862 114.64C147.222 114.64 144.182 113.08 142.142 110.36C139.782 107.24 139.102 102.96 139.102 98.24C139.102 93.56 139.782 89.28 142.142 86.16C144.182 83.44 147.222 81.88 151.862 81.88C156.462 81.88 159.542 83.44 161.582 86.16C163.942 89.28 164.582 93.56 164.582 98.24ZM145.702 98.24C145.702 102.92 146.182 105.28 147.302 106.92C148.262 108.36 149.782 109.12 151.862 109.12C153.942 109.12 155.462 108.36 156.422 106.92C157.542 105.28 157.982 102.92 157.982 98.24C157.982 93.6 157.542 91.24 156.422 89.6C155.462 88.16 153.942 87.4 151.862 87.4C149.782 87.4 148.262 88.16 147.302 89.6C146.182 91.24 145.702 93.6 145.702 98.24Z" fill="black"/>
<path d="M10 76H177V70H10V76ZM177 121H10V127H177V121Z" fill="black" mask="url(#path-2-inside-1_124_6685)"/>
</svg>
