<svg width="100" height="100" viewBox="0 0 100 100" fill="none" xmlns="http://www.w3.org/2000/svg">
<mask id="mask0_123_6646" style="mask-type:alpha" maskUnits="userSpaceOnUse" x="0" y="0" width="100" height="100">
<rect width="100" height="100" fill="white"/>
</mask>
<g mask="url(#mask0_123_6646)">
<path d="M23.021 75C25.9377 75 28.4029 73.993 30.4168 71.9791C32.4307 69.9652 33.4377 67.5 33.4377 64.5833C33.4377 62.9166 33.0557 61.2847 32.2918 59.6875C31.5279 58.0902 30.3821 56.8055 28.8543 55.8333L25.1043 53.3333V27.0833C25.1043 26.4583 24.9134 25.9548 24.5314 25.5729C24.1495 25.1909 23.646 25 23.021 25C22.396 25 21.8925 25.1909 21.5106 25.5729C21.1286 25.9548 20.9377 26.4583 20.9377 27.0833V53.3333L17.1877 55.8333C15.6599 56.875 14.5141 58.1597 13.7502 59.6875C12.9863 61.2152 12.6043 62.8472 12.6043 64.5833C12.6043 67.5 13.6113 69.9652 15.6252 71.9791C17.6391 73.993 20.1043 75 23.021 75ZM23.021 83.3333C17.8127 83.3333 13.3856 81.5277 9.73975 77.9166C6.09391 74.3055 4.271 69.8611 4.271 64.5833C4.271 61.25 5.03488 58.2638 6.56266 55.625C8.09044 52.9861 10.1043 50.8333 12.6043 49.1666V27.0833C12.6043 24.1666 13.6113 21.7013 15.6252 19.6875C17.6391 17.6736 20.1043 16.6666 23.021 16.6666C25.9377 16.6666 28.4029 17.6736 30.4168 19.6875C32.4307 21.7013 33.4377 24.1666 33.4377 27.0833V49.1666C35.9377 50.8333 37.9515 52.9861 39.4793 55.625C41.0071 58.2638 41.771 61.25 41.771 64.5833C41.771 69.7916 39.9481 74.2187 36.3022 77.8645C32.6564 81.5104 28.2293 83.3333 23.021 83.3333ZM57.0835 62.5C53.7502 60.2083 51.0418 57.2569 48.9585 53.6458C46.8752 50.0347 45.8335 46.0416 45.8335 41.6666C45.8335 34.7222 48.2641 28.8194 53.1252 23.9583C57.9863 19.0972 63.8891 16.6666 70.8335 16.6666C77.7779 16.6666 83.6807 19.0972 88.5418 23.9583C93.4029 28.8194 95.8335 34.7222 95.8335 41.6666C95.8335 46.0416 94.7918 50.0347 92.7085 53.6458C90.6252 57.2569 87.9168 60.2083 84.5835 62.5H57.0835ZM60.0002 54.1666H82.0835C83.9585 52.5 85.33 50.625 86.1981 48.5416C87.0661 46.4583 87.5002 44.1666 87.5002 41.6666C87.5002 37.0833 85.8682 33.1597 82.6043 29.8958C79.3404 26.6319 75.4168 25 70.8335 25C66.2502 25 62.3266 26.6319 59.0627 29.8958C55.7988 33.1597 54.1668 37.0833 54.1668 41.6666C54.1668 44.1666 54.6703 46.4583 55.6772 48.5416C56.6842 50.625 58.1252 52.5 60.0002 54.1666ZM70.8335 83.3333C69.1668 83.3333 67.7085 82.7083 66.4585 81.4583C65.2085 80.2083 64.5835 78.75 64.5835 77.0833H77.0835C77.0835 78.75 76.4585 80.2083 75.2085 81.4583C73.9585 82.7083 72.5002 83.3333 70.8335 83.3333ZM58.3335 75V66.6666H83.3335V75H58.3335Z" fill="white"/>
</g>
</svg>
