<svg width="100" height="100" viewBox="0 0 100 100" fill="none" xmlns="http://www.w3.org/2000/svg">
<mask id="mask0_123_6643" style="mask-type:alpha" maskUnits="userSpaceOnUse" x="0" y="0" width="100" height="100">
<rect width="100" height="100" fill="white"/>
</mask>
<g mask="url(#mask0_123_6643)">
<path d="M45.8335 70.8333H29.1668C23.4029 70.8333 18.4897 68.802 14.4272 64.7395C10.3647 60.677 8.3335 55.7639 8.3335 50C8.3335 44.2361 10.3647 39.3229 14.4272 35.2604C18.4897 31.1979 23.4029 29.1666 29.1668 29.1666H45.8335V37.5H29.1668C25.6946 37.5 22.7432 38.7152 20.3127 41.1458C17.8821 43.5763 16.6668 46.5277 16.6668 50C16.6668 53.4722 17.8821 56.4236 20.3127 58.8541C22.7432 61.2847 25.6946 62.5 29.1668 62.5H45.8335V70.8333ZM33.3335 54.1666V45.8333H66.6668V54.1666H33.3335ZM54.1668 70.8333V62.5H70.8335C74.3057 62.5 77.2571 61.2847 79.6877 58.8541C82.1182 56.4236 83.3335 53.4722 83.3335 50C83.3335 46.5277 82.1182 43.5763 79.6877 41.1458C77.2571 38.7152 74.3057 37.5 70.8335 37.5H54.1668V29.1666H70.8335C76.5974 29.1666 81.5106 31.1979 85.5731 35.2604C89.6356 39.3229 91.6668 44.2361 91.6668 50C91.6668 55.7639 89.6356 60.677 85.5731 64.7395C81.5106 68.802 76.5974 70.8333 70.8335 70.8333H54.1668Z" fill="white"/>
</g>
</svg>
