<svg width="429" height="108" viewBox="0 0 429 108" fill="none" xmlns="http://www.w3.org/2000/svg">
<g clip-path="url(#clip0_692_29581)">
<path d="M76.4398 3.40002H77.9719C82.389 3.40002 85.9748 6.98584 85.9748 11.4029V18.2648C85.9748 20.6282 84.0515 22.5515 81.6881 22.5515H72.691C70.3276 22.5515 68.4043 20.6282 68.4043 18.2648V11.4029C68.4043 6.98584 71.9901 3.40002 76.4072 3.40002H76.4398Z" fill="#F8B62C"/>
<path d="M89.8864 22.2092C81.476 23.2849 72.9516 23.2849 64.5249 22.2092C63.6937 22.2092 63.0254 21.5409 63.0254 20.7096C63.0254 19.8784 63.6937 19.2101 64.5249 19.2101C72.9353 18.1344 81.4597 18.1344 89.8864 19.2101C90.7176 19.2101 91.3859 19.8784 91.3859 20.7096C91.3859 21.5409 90.7176 22.2092 89.8864 22.2092Z" fill="#F8B62C"/>
<path d="M53.5812 58.1395C59.4436 52.2771 59.0101 42.3389 52.6131 35.9419C46.2161 29.5449 36.2779 29.1114 30.4155 34.9738C24.5532 40.8361 24.9866 50.7743 31.3836 57.1714C37.7807 63.5684 47.7189 64.0018 53.5812 58.1395Z" fill="#F8B62C"/>
<path d="M124.295 57.1737C130.692 50.7767 131.125 40.8385 125.263 34.9761C119.401 29.1138 109.462 29.5472 103.065 35.9442C96.6682 42.3413 96.2348 52.2795 102.097 58.1418C107.96 64.0042 117.898 63.5708 124.295 57.1737Z" fill="#F8B62C"/>
<path d="M77.2086 149C107.013 149 131.175 122.635 131.175 90.1112C131.175 57.5878 107.013 31.2224 77.2086 31.2224C47.4038 31.2224 23.2422 57.5878 23.2422 90.1112C23.2422 122.635 47.4038 149 77.2086 149Z" fill="white"/>
<path fill-rule="evenodd" clip-rule="evenodd" d="M77.2082 34.6225C49.5544 34.6225 26.6418 59.1802 26.6418 90.1113C26.6418 121.042 49.5544 145.6 77.2082 145.6C104.862 145.6 127.775 121.042 127.775 90.1113C127.775 59.1802 104.862 34.6225 77.2082 34.6225ZM19.8418 90.1113C19.8418 55.9956 45.2524 27.8225 77.2082 27.8225C109.164 27.8225 134.575 55.9956 134.575 90.1113C134.575 124.227 109.164 152.4 77.2082 152.4C45.2524 152.4 19.8418 124.227 19.8418 90.1113Z" fill="#F8B62C"/>
<path d="M59.0353 66.2819C62.1409 66.2819 64.6585 63.7644 64.6585 60.6587C64.6585 57.5531 62.1409 55.0355 59.0353 55.0355C55.9297 55.0355 53.4121 57.5531 53.4121 60.6587C53.4121 63.7644 55.9297 66.2819 59.0353 66.2819Z" fill="#F8B62C"/>
<path d="M95.3654 66.2819C98.471 66.2819 100.989 63.7644 100.989 60.6587C100.989 57.5531 98.471 55.0355 95.3654 55.0355C92.2598 55.0355 89.7422 57.5531 89.7422 60.6587C89.7422 63.7644 92.2598 66.2819 95.3654 66.2819Z" fill="#F8B62C"/>
<path d="M76.8172 88.4815C68.358 88.4815 59.9965 86.9657 52.4174 83.9503C51.5698 83.6081 51.1787 82.6138 51.5372 81.7826C51.8958 80.9676 52.8249 80.609 53.6398 80.935C68.0646 86.6886 85.4394 86.6723 100.777 80.8861C101.608 80.5764 102.521 80.9676 102.863 81.7826C103.206 82.6301 102.798 83.6081 101.934 83.9341C93.8824 86.9657 85.2928 88.4815 76.8009 88.4815H76.8172Z" fill="#F8B62C"/>
</g>
<rect y="102" width="429" height="6" rx="3" fill="#F8B62C"/>
<defs>
<clipPath id="clip0_692_29581">
<rect width="136" height="102" fill="white" transform="translate(13)"/>
</clipPath>
</defs>
</svg>
