<?xml version="1.0" encoding="UTF-8"?>
<svg id="_레이어_2" data-name="레이어 2" xmlns="http://www.w3.org/2000/svg" viewBox="0 0 185.16 327.15">
  <defs>
    <style>
      .cls-1 {
        fill: #fff;
      }
    </style>
  </defs>
  <g id="_레이어_1-2" data-name="레이어 1">
    <path class="cls-1" d="M48.53,0H6.88S.53,1.19,.13,9.52s.21,308.58,.21,308.58c0,0,0,7.79,9.81,8.66s166.5,0,166.5,0c0,0,8.08,1.15,8.37-9.23s0-310.5,0-310.5c0,0-.29-7.02-11.54-7.02h-38.67s-2.31-.19-3.46,1.83,.33,8.13-2.56,9c-2.64,.79-57.36,.34-67.55,.34-4.84,0-6.48,.15-7.6-.86s-.09-5.72-.98-8.58C52.22,.33,48.53,0,48.53,0Z"/>
  </g>
</svg>