<svg width="100" height="100" viewBox="0 0 100 100" fill="none" xmlns="http://www.w3.org/2000/svg">
<mask id="mask0_123_6649" style="mask-type:alpha" maskUnits="userSpaceOnUse" x="0" y="0" width="100" height="100">
<rect width="100" height="100" fill="white"/>
</mask>
<g mask="url(#mask0_123_6649)">
<path d="M43.7502 52.0833C44.9307 52.0833 45.9203 51.684 46.7189 50.8854C47.5175 50.0868 47.9168 49.0972 47.9168 47.9166C47.9168 46.7361 47.5175 45.7465 46.7189 44.9479C45.9203 44.1493 44.9307 43.75 43.7502 43.75C42.5696 43.75 41.58 44.1493 40.7814 44.9479C39.9828 45.7465 39.5835 46.7361 39.5835 47.9166C39.5835 49.0972 39.9828 50.0868 40.7814 50.8854C41.58 51.684 42.5696 52.0833 43.7502 52.0833ZM56.2502 52.0833C57.4307 52.0833 58.4203 51.684 59.2189 50.8854C60.0175 50.0868 60.4168 49.0972 60.4168 47.9166C60.4168 46.7361 60.0175 45.7465 59.2189 44.9479C58.4203 44.1493 57.4307 43.75 56.2502 43.75C55.0696 43.75 54.08 44.1493 53.2814 44.9479C52.4828 45.7465 52.0835 46.7361 52.0835 47.9166C52.0835 49.0972 52.4828 50.0868 53.2814 50.8854C54.08 51.684 55.0696 52.0833 56.2502 52.0833ZM31.2502 52.0833C32.4307 52.0833 33.4203 51.684 34.2189 50.8854C35.0175 50.0868 35.4168 49.0972 35.4168 47.9166C35.4168 46.7361 35.0175 45.7465 34.2189 44.9479C33.4203 44.1493 32.4307 43.75 31.2502 43.75C30.0696 43.75 29.08 44.1493 28.2814 44.9479C27.4828 45.7465 27.0835 46.7361 27.0835 47.9166C27.0835 49.0972 27.4828 50.0868 28.2814 50.8854C29.08 51.684 30.0696 52.0833 31.2502 52.0833ZM68.7502 52.0833C69.9307 52.0833 70.9203 51.684 71.7189 50.8854C72.5175 50.0868 72.9168 49.0972 72.9168 47.9166C72.9168 46.7361 72.5175 45.7465 71.7189 44.9479C70.9203 44.1493 69.9307 43.75 68.7502 43.75C67.5696 43.75 66.58 44.1493 65.7814 44.9479C64.9828 45.7465 64.5835 46.7361 64.5835 47.9166C64.5835 49.0972 64.9828 50.0868 65.7814 50.8854C66.58 51.684 67.5696 52.0833 68.7502 52.0833ZM16.6668 87.5V79.1666C14.3752 79.1666 12.4134 78.3507 10.7814 76.7187C9.14947 75.0868 8.3335 73.125 8.3335 70.8333V25C8.3335 22.7083 9.14947 20.7465 10.7814 19.1145C12.4134 17.4826 14.3752 16.6666 16.6668 16.6666H83.3335C85.6252 16.6666 87.587 17.4826 89.2189 19.1145C90.8509 20.7465 91.6668 22.7083 91.6668 25V70.8333C91.6668 73.125 90.8509 75.0868 89.2189 76.7187C87.587 78.3507 85.6252 79.1666 83.3335 79.1666V87.5H79.1668L76.4585 79.1666H23.646L20.8335 87.5H16.6668ZM16.6668 70.8333H83.3335V25H16.6668V70.8333Z" fill="white"/>
</g>
</svg>
